<svg height='100px' width='100px'  fill="#000000" xmlns="http://www.w3.org/2000/svg" xmlns:xlink="http://www.w3.org/1999/xlink" version="1.1" x="0px" y="0px" viewBox="0 0 100 100" enable-background="new 0 0 100 100" xml:space="preserve"><g><path d="M50.012,21.036c-15.998,0-28.965,12.967-28.965,28.964c0,15.998,12.967,28.965,28.965,28.965   c15.999,0,28.967-12.967,28.967-28.965C78.979,34.003,66.011,21.036,50.012,21.036z M26.926,51.379h-3.42   c-0.757,0-1.368-0.611-1.368-1.369c0-0.756,0.611-1.368,1.368-1.368h3.42c0.756,0,1.368,0.612,1.368,1.368   C28.294,50.768,27.682,51.379,26.926,51.379z M48.666,23.494c0-0.756,0.611-1.368,1.367-1.368s1.369,0.612,1.369,1.368v3.42   c0,0.755-0.613,1.368-1.369,1.368s-1.367-0.613-1.367-1.368V23.494z M51.379,76.506c0,0.756-0.611,1.369-1.367,1.369   s-1.368-0.613-1.368-1.369v-3.42c0-0.756,0.612-1.367,1.368-1.367s1.367,0.611,1.367,1.367V76.506z M64.859,36.175l-6.742,11.789   c0.168,0.663,0.269,1.354,0.269,2.069c0,4.611-3.741,8.352-8.353,8.352c-0.779,0-1.531-0.115-2.248-0.314L36.02,64.684   c-1.097,0.617-1.48,0.232-0.855-0.861l6.761-11.821c-0.153-0.632-0.243-1.288-0.243-1.967c0-4.613,3.74-8.352,8.352-8.352   c0.74,0,1.453,0.105,2.136,0.286l11.834-6.654C65.101,34.697,65.484,35.083,64.859,36.175z M76.518,51.4h-3.421   c-0.756,0-1.367-0.612-1.367-1.367c0-0.756,0.611-1.368,1.367-1.368h3.421c0.756,0,1.368,0.612,1.368,1.368   C77.886,50.788,77.273,51.4,76.518,51.4z"></path><circle cx="50.034" cy="49.998" r="3.982"></circle><path d="M50.012,9.814C27.817,9.814,9.825,27.806,9.825,50c0,22.193,17.992,40.186,40.187,40.186   c22.193,0,40.186-17.992,40.186-40.186C90.197,27.806,72.205,9.814,50.012,9.814z M50.012,84.867   c-19.256,0-34.867-15.61-34.867-34.867c0-19.256,15.611-34.867,34.867-34.867c19.257,0,34.867,15.612,34.867,34.867   C84.879,69.258,69.269,84.867,50.012,84.867z"></path></g></svg>