<svg height='100px' width='100px'  fill="#000000" xmlns="http://www.w3.org/2000/svg" xmlns:xlink="http://www.w3.org/1999/xlink" version="1.1" x="0px" y="0px" viewBox="0 0 24 24" enable-background="new 0 0 24 24" xml:space="preserve"><g><path d="M12,20.857c-0.167,0-0.333-0.063-0.459-0.19L0.223,9.349C0.037,9.163-0.019,8.884,0.082,8.641   C0.182,8.398,0.419,8.24,0.682,8.24h22.636c0.263,0,0.5,0.158,0.601,0.401c0.101,0.243,0.045,0.522-0.141,0.708L12.459,20.667   C12.333,20.794,12.167,20.857,12,20.857z M2.251,9.539L12,19.288l9.749-9.749H2.251z"></path><path d="M23.318,6.991H0.682c-0.359,0-0.65-0.291-0.65-0.65s0.291-0.65,0.65-0.65h22.636c0.359,0,0.65,0.291,0.65,0.65   S23.677,6.991,23.318,6.991z"></path><path d="M23.318,4.443H0.682c-0.359,0-0.65-0.291-0.65-0.65s0.291-0.65,0.65-0.65h22.636c0.359,0,0.65,0.291,0.65,0.65   S23.677,4.443,23.318,4.443z"></path></g></svg>