<svg height='100px' width='100px'  fill="#000000" xmlns="http://www.w3.org/2000/svg" xmlns:xlink="http://www.w3.org/1999/xlink" version="1.1" preserveAspectRatio="none" x="0px" y="0px" viewBox="0 0 100 100"><defs><g id="a"><path fill="#000000" stroke="none" d=" M 72.65 14.35 Q 63.2 5 49.95 5 43.35 5 37.7 7.35 32 9.7 27.35 14.35 17.9 23.7 18 37.05 18 45.85 22.2 53.1 22.25 53.2 22.45 53.45 22.65 53.75 22.8 54 L 49.35 95 77.6 53.45 Q 82 46.1 82 37.05 82 23.75 72.65 14.35 M 60.9 27.15 Q 65.4 31.65 65.4 38.05 65.4 41.2 64.25 43.95 63.15 46.65 60.9 48.95 58.6 51.2 55.9 52.35 53.15 53.45 49.95 53.45 43.6 53.45 39.1 48.95 36.85 46.65 35.75 43.95 34.6 41.2 34.6 38.05 34.6 31.65 39.1 27.15 43.6 22.55 49.95 22.65 L 49.95 22.7 Q 53.15 22.6 55.9 23.75 58.6 24.85 60.9 27.15 Z"></path></g></defs><g transform="matrix( 1, 0, 0, 1, 0,0) "><use xlink:href="#a"></use></g></svg>